P2
2 2
124
037 124
067 099